<svg xmlns="http://www.w3.org/2000/svg" width="1700" height="1160" viewBox="0 0 1700 1160">
  <defs>
    <filter id="shadow" x="-20%" y="-20%" width="140%" height="140%">
      <feDropShadow dx="0" dy="14" stdDeviation="16" flood-color="#18202b" flood-opacity=".14"/>
    </filter>
    <linearGradient id="hero" x1="0" x2="1" y1="0" y2="1">
      <stop offset="0" stop-color="#fff1df"/>
      <stop offset="1" stop-color="#ffe1bb"/>
    </linearGradient>
    <linearGradient id="orange" x1="0" x2="1">
      <stop offset="0" stop-color="#ff8a3d"/>
      <stop offset="1" stop-color="#f2662d"/>
    </linearGradient>
    <style>
      .bg{fill:#f5f2ed}.phone{fill:#fbfbfa;stroke:#d9d4cc;stroke-width:3}.ink{fill:#20262e}.muted{fill:#7c8188}.orange{fill:#f36f32}.line{stroke:#e9e5df;stroke-width:2}.card{fill:#fff;stroke:#ece8e2;stroke-width:2}.soft{fill:#fff4e8}.green{fill:#e9f7ef}.blue{fill:#eaf2ff}.tag{font-family:-apple-system,BlinkMacSystemFont,'PingFang SC','Microsoft YaHei',sans-serif;font-size:17px;font-weight:600}.h1{font-family:-apple-system,BlinkMacSystemFont,'PingFang SC','Microsoft YaHei',sans-serif;font-size:27px;font-weight:700}.h2{font-family:-apple-system,BlinkMacSystemFont,'PingFang SC','Microsoft YaHei',sans-serif;font-size:20px;font-weight:700}.body{font-family:-apple-system,BlinkMacSystemFont,'PingFang SC','Microsoft YaHei',sans-serif;font-size:16px;font-weight:400}.small{font-family:-apple-system,BlinkMacSystemFont,'PingFang SC','Microsoft YaHei',sans-serif;font-size:14px;font-weight:400}.num{font-family:-apple-system,BlinkMacSystemFont,'PingFang SC','Microsoft YaHei',sans-serif;font-size:34px;font-weight:800}.white{fill:#fff}.center{text-anchor:middle}.right{text-anchor:end}.stroke-orange{stroke:#f36f32;stroke-width:3;fill:none}.stroke-muted{stroke:#b9b5ae;stroke-width:2;fill:none}
    </style>
  </defs>
  <rect width="1700" height="1160" fill="#ece8e1"/>
  <text x="70" y="62" class="h1 ink">资料整理助手 · 我的工具 / 互帮互助 V1.2 视觉讨论稿</text>
  <text x="70" y="95" class="body muted">统一互助积分：默认“积分优先”排序，可切换“赏金最高”；仅用于产品方向评审，不是最终代码。</text>

  <!-- Phone 1 -->
  <g transform="translate(55 135)" filter="url(#shadow)">
    <rect width="300" height="900" rx="34" class="phone"/>
    <rect x="16" y="16" width="268" height="868" rx="25" fill="#f6f3ef"/>
    <rect x="112" y="25" width="76" height="9" rx="5" fill="#20262e"/>
    <text x="34" y="77" class="h1 ink">互帮互助</text>
    <text x="266" y="77" class="tag orange right">我的工具</text>
    <rect x="31" y="92" width="238" height="40" rx="20" fill="#ebe7e1"/>
    <rect x="33" y="94" width="54" height="36" rx="18" fill="#fff"/>
    <text x="60" y="118" class="tag orange center">首页</text>
    <text x="118" y="118" class="tag muted center">发布</text>
    <text x="177" y="118" class="tag muted center">任务</text>
    <text x="236" y="118" class="tag muted center">我的</text>
    <g transform="translate(0 44)">
    <rect x="31" y="100" width="238" height="116" rx="22" fill="url(#hero)"/>
    <text x="50" y="131" class="small muted">我的互助积分</text>
    <text x="50" y="180" class="num ink">100</text>
    <text x="128" y="179" class="small muted">分</text>
    <rect x="201" y="138" width="49" height="49" rx="18" fill="#fff" opacity=".7"/>
    <path d="M216 163h20M226 153v20" stroke="#f36f32" stroke-width="3" stroke-linecap="round"/>
    <text x="31" y="256" class="h2 ink">任务大厅</text>
    <text x="269" y="256" class="small muted right">全部任务⌄</text>
    <rect x="31" y="275" width="238" height="42" rx="21" fill="#ebe7e1"/>
    <rect x="33" y="277" width="113" height="38" rx="19" fill="#fff"/>
    <text x="90" y="302" class="tag orange center">积分优先</text>
    <text x="205" y="302" class="tag muted center">赏金最高</text>
    <g transform="translate(31 337)">
      <rect width="238" height="181" rx="20" class="card"/>
      <rect x="15" y="16" width="77" height="26" rx="13" class="soft"/>
      <text x="53" y="34" class="small orange center">小程序任务</text>
      <rect x="177" y="16" width="46" height="26" rx="13" class="soft"/>
      <text x="200" y="34" class="small orange center">+4 分</text>
      <text x="15" y="73" class="h2 ink">体验一个招聘小程序</text>
      <text x="15" y="101" class="small muted">打开页面，停留后提交体验反馈</text>
      <text x="15" y="137" class="tag orange">发布者积分 368</text>
      <line x1="15" y1="151" x2="223" y2="151" class="line"/>
      <text x="15" y="171" class="small muted">剩余 18 份</text>
      <text x="223" y="171" class="tag orange right">去完成 ›</text>
    </g>
    <g transform="translate(31 535)">
      <rect width="238" height="190" rx="20" class="card"/>
      <rect x="15" y="16" width="77" height="26" rx="13" class="green"/>
      <text x="53" y="34" class="small" fill="#1f8b55" text-anchor="middle">普通任务</text>
      <rect x="177" y="16" width="46" height="26" rx="13" class="soft"/>
      <text x="200" y="34" class="small orange center">+8 分</text>
      <text x="15" y="73" class="h2 ink">帮忙校对一段商品文案</text>
      <text x="15" y="101" class="small muted">按交付标准提交文字修改建议</text>
      <text x="15" y="137" class="tag orange">发布者积分 246</text>
      <line x1="15" y1="151" x2="223" y2="151" class="line"/>
      <text x="15" y="177" class="small muted">剩余 6 份 · 明天截止</text>
      <text x="223" y="177" class="tag orange right">去完成 ›</text>
    </g>
    </g>
  </g>
  <text x="205" y="1070" class="h2 ink center">01 首页 / 排序</text>

  <!-- Phone 2 -->
  <g transform="translate(385 135)" filter="url(#shadow)">
    <rect width="300" height="900" rx="34" class="phone"/>
    <rect x="16" y="16" width="268" height="868" rx="25" fill="#f6f3ef"/>
    <rect x="112" y="25" width="76" height="9" rx="5" fill="#20262e"/>
    <text x="34" y="77" class="h1 ink">任务详情</text>
    <text x="266" y="77" class="h2 muted right">‹</text>
    <rect x="31" y="92" width="238" height="40" rx="20" fill="#ebe7e1"/>
    <rect x="151" y="94" width="56" height="36" rx="18" fill="#fff"/>
    <text x="60" y="118" class="tag muted center">首页</text>
    <text x="118" y="118" class="tag muted center">发布</text>
    <text x="179" y="118" class="tag orange center">任务</text>
    <text x="236" y="118" class="tag muted center">我的</text>
    <g transform="translate(0 38)">
    <rect x="31" y="102" width="238" height="150" rx="22" class="card"/>
    <rect x="50" y="124" width="77" height="26" rx="13" class="soft"/>
    <text x="89" y="142" class="small orange center">小程序任务</text>
    <text x="50" y="184" class="h1 ink">体验一个招聘小程序</text>
    <text x="50" y="218" class="small muted">完成可得 4 分 · 剩余 18 份</text>
    <text x="50" y="241" class="small orange">发布者积分 368</text>
    <text x="31" y="296" class="h2 ink">任务说明</text>
    <rect x="31" y="314" width="238" height="92" rx="18" class="card"/>
    <text x="50" y="346" class="body ink">打开目标小程序，体验首页和搜索</text>
    <text x="50" y="374" class="body ink">流程，返回后可填写你的使用感受。</text>
    <text x="31" y="452" class="h2 ink">任务链接</text>
    <rect x="31" y="470" width="238" height="64" rx="18" class="blue"/>
    <text x="50" y="496" class="small muted">#小程序://招聘工具/...</text>
    <text x="50" y="520" class="small" fill="#4676ba">点击后打开目标小程序</text>
    <text x="31" y="581" class="h2 ink">完成反馈（可选）</text>
    <rect x="31" y="599" width="238" height="83" rx="18" class="card"/>
    <text x="50" y="632" class="small muted">写下你的体验感受，不填也可以</text>
    <line x1="50" y1="654" x2="248" y2="654" class="line"/>
    <rect x="31" y="703" width="238" height="58" rx="29" fill="url(#orange)"/>
    <text x="150" y="739" class="h2 white center">打开小程序</text>
    <text x="150" y="794" class="small muted center">返回后可提交完成</text>
    </g>
  </g>
  <text x="535" y="1070" class="h2 ink center">02 小程序详情 / 提交</text>

  <!-- Phone 3 -->
  <g transform="translate(715 135)" filter="url(#shadow)">
    <rect width="300" height="900" rx="34" class="phone"/>
    <rect x="16" y="16" width="268" height="868" rx="25" fill="#f6f3ef"/>
    <rect x="112" y="25" width="76" height="9" rx="5" fill="#20262e"/>
    <text x="34" y="77" class="h1 ink">提交任务</text><text x="266" y="77" class="h2 muted right">‹</text>
    <rect x="31" y="92" width="238" height="40" rx="20" fill="#ebe7e1"/>
    <rect x="151" y="94" width="56" height="36" rx="18" fill="#fff"/>
    <text x="60" y="118" class="tag muted center">首页</text>
    <text x="118" y="118" class="tag muted center">发布</text>
    <text x="179" y="118" class="tag orange center">任务</text>
    <text x="236" y="118" class="tag muted center">我的</text>
    <g transform="translate(0 35)">
    <rect x="31" y="104" width="238" height="91" rx="20" class="card"/>
    <text x="50" y="137" class="small muted">普通任务 · +8 分</text>
    <text x="50" y="171" class="h2 ink">帮忙校对一段商品文案</text>
    <text x="31" y="239" class="h2 ink">验收标准</text>
    <rect x="31" y="258" width="238" height="154" rx="20" class="card"/>
    <text x="50" y="291" class="body ink">1. 找出错别字和语病</text>
    <text x="50" y="321" class="body ink">2. 给出修改后的完整句子</text>
    <text x="50" y="351" class="body ink">3. 说明至少一处修改原因</text>
    <text x="50" y="385" class="small" fill="#f36f32">材料类型：文字，可附图片</text>
    <text x="31" y="461" class="h2 ink">提交文字</text>
    <rect x="31" y="480" width="238" height="135" rx="20" fill="#fff" stroke="#f0c9a5" stroke-width="3"/>
    <text x="50" y="515" class="small muted">按交付标准写下修改建议...</text>
    <text x="50" y="584" class="small muted">0 / 500</text>
    <text x="31" y="658" class="h2 ink">补充图片（可选）</text>
    <rect x="31" y="677" width="78" height="78" rx="17" class="card"/>
    <text x="70" y="724" class="num muted center">＋</text>
    <rect x="31" y="746" width="238" height="58" rx="29" fill="url(#orange)"/>
    <text x="150" y="782" class="h2 white center">提交验收</text>
    </g>
  </g>
  <text x="865" y="1070" class="h2 ink center">03 普通任务 / 交付</text>

  <!-- Phone 4 -->
  <g transform="translate(1045 135)" filter="url(#shadow)">
    <rect width="300" height="900" rx="34" class="phone"/>
    <rect x="16" y="16" width="268" height="868" rx="25" fill="#f6f3ef"/>
    <rect x="112" y="25" width="76" height="9" rx="5" fill="#20262e"/>
    <text x="34" y="77" class="h1 ink">发布任务</text><text x="266" y="77" class="h2 muted right">×</text>
    <rect x="31" y="92" width="238" height="40" rx="20" fill="#ebe7e1"/>
    <rect x="91" y="94" width="56" height="36" rx="18" fill="#fff"/>
    <text x="60" y="118" class="tag muted center">首页</text>
    <text x="119" y="118" class="tag orange center">发布</text>
    <text x="178" y="118" class="tag muted center">任务</text>
    <text x="236" y="118" class="tag muted center">我的</text>
    <g transform="translate(0 35)">
    <rect x="31" y="104" width="238" height="43" rx="22" fill="#ebe7e1"/>
    <rect x="153" y="106" width="113" height="39" rx="20" fill="#fff"/>
    <text x="90" y="131" class="tag muted center">小程序任务</text><text x="210" y="131" class="tag orange center">普通任务</text>
    <text x="31" y="197" class="h2 ink">任务标题</text>
    <rect x="31" y="216" width="238" height="56" rx="17" class="card"/><text x="50" y="251" class="body muted">例如：校对一段商品文案</text>
    <rect x="31" y="278" width="120" height="24" rx="12" class="green"/><text x="91" y="295" class="small" fill="#1f8b55" text-anchor="middle">分类：文本校对</text>
    <text x="31" y="320" class="h2 ink">任务内容</text>
    <rect x="31" y="339" width="238" height="74" rx="17" class="card"/><text x="50" y="372" class="small muted">写清楚要完成什么、怎么操作</text><text x="50" y="397" class="small" fill="#f36f32">支持文字 / 图片 / 混合</text>
    <text x="31" y="461" class="h2 ink">验收标准</text>
    <rect x="31" y="480" width="238" height="82" rx="17" class="card"/><text x="50" y="516" class="small muted">例如：找出错别字并说明原因</text><text x="50" y="541" class="small muted">支持文字 / 图片 / 混合</text>
    <text x="31" y="614" class="h2 ink">任务次数（可选）</text>
    <rect x="31" y="633" width="112" height="53" rx="17" fill="#fff" stroke="#f0c9a5" stroke-width="3"/><text x="73" y="667" class="h2 ink center">3 次</text>
    <text x="31" y="725" class="small muted">奖励积分 10 分 · 执行者得 8 分</text>
    <rect x="31" y="761" width="238" height="58" rx="29" fill="url(#orange)"/><text x="150" y="797" class="h2 white center">确认发布</text>
    </g>
  </g>
  <text x="1195" y="1070" class="h2 ink center">04 发布任务 / 普通任务</text>

  <!-- Phone 5 -->
  <g transform="translate(1375 135)" filter="url(#shadow)">
    <rect width="300" height="900" rx="34" class="phone"/>
    <rect x="16" y="16" width="268" height="868" rx="25" fill="#f6f3ef"/>
    <rect x="112" y="25" width="76" height="9" rx="5" fill="#20262e"/>
    <text x="34" y="77" class="h1 ink">我的工具</text><text x="266" y="77" class="small muted right">设置</text>
    <rect x="31" y="92" width="238" height="40" rx="20" fill="#ebe7e1"/>
    <rect x="210" y="94" width="57" height="36" rx="18" fill="#fff"/>
    <text x="60" y="118" class="tag muted center">首页</text>
    <text x="118" y="118" class="tag muted center">发布</text>
    <text x="177" y="118" class="tag muted center">任务</text>
    <text x="238" y="118" class="tag orange center">我的</text>
    <g transform="translate(0 35)">
    <rect x="31" y="104" width="238" height="145" rx="23" fill="url(#hero)"/>
    <text x="51" y="139" class="small muted">当前互助积分</text><text x="51" y="202" class="num ink">268</text><text x="137" y="201" class="small muted">分</text>
    <text x="51" y="229" class="small" fill="#8c5b35">可提现门槛 100 分</text>
    <rect x="31" y="274" width="238" height="76" rx="20" class="card"/>
    <text x="52" y="306" class="small muted">本月获得</text><text x="52" y="332" class="h2 ink">+96 分</text><text x="166" y="306" class="small muted">本月消耗</text><text x="166" y="332" class="h2 ink">-40 分</text>
    <text x="31" y="398" class="h2 ink">积分操作</text>
    <rect x="31" y="417" width="112" height="63" rx="18" class="card"/><text x="87" y="455" class="h2 orange center">充值积分</text>
    <rect x="157" y="417" width="112" height="63" rx="18" class="card"/><text x="213" y="455" class="h2 orange center">提现积分</text>
    <text x="31" y="530" class="h2 ink">我的任务</text>
    <rect x="31" y="550" width="238" height="58" rx="18" class="card"/><text x="52" y="585" class="body ink">我发布的任务</text><text x="247" y="585" class="tag muted right">3 ›</text>
    <rect x="31" y="620" width="238" height="58" rx="18" class="card"/><text x="52" y="655" class="body ink">我领取的任务</text><text x="247" y="655" class="tag muted right">2 ›</text>
    <rect x="31" y="690" width="238" height="58" rx="18" class="card"/><text x="52" y="725" class="body ink">积分明细</text><text x="247" y="725" class="tag muted right">›</text>
    <text x="31" y="790" class="small muted">提现和手续费规则由 PC 端配置</text>
    </g>
  </g>
  <text x="1525" y="1070" class="h2 ink center">05 我的工具 / 积分</text>
</svg>
